<mxfile host="Electron" agent="Mozilla/5.0 (Windows NT 10.0; Win64; x64) AppleWebKit/537.36 (KHTML, like Gecko) draw.io/24.7.8 Chrome/128.0.6613.36 Electron/32.0.1 Safari/537.36" version="24.7.8">
  <diagram name="Halaman-1" id="aoqG2UJsjmu9qE-R1NFX">
    <mxGraphModel dx="974" dy="1054" grid="1" gridSize="10" guides="1" tooltips="1" connect="1" arrows="1" fold="1" page="0" pageScale="1" pageWidth="827" pageHeight="1169" math="0" shadow="0">
      <root>
        <mxCell id="0" />
        <mxCell id="1" parent="0" />
        <mxCell id="wc6qztgDE9MtCntjSy3h-3" value="" style="edgeStyle=none;curved=1;rounded=0;orthogonalLoop=1;jettySize=auto;html=1;fontSize=12;startSize=8;endSize=8;" parent="1" source="wc6qztgDE9MtCntjSy3h-1" target="wc6qztgDE9MtCntjSy3h-2" edge="1">
          <mxGeometry relative="1" as="geometry" />
        </mxCell>
        <mxCell id="wc6qztgDE9MtCntjSy3h-1" value="Start" style="ellipse;whiteSpace=wrap;html=1;" parent="1" vertex="1">
          <mxGeometry x="200" y="-120" width="106" height="62" as="geometry" />
        </mxCell>
        <mxCell id="wc6qztgDE9MtCntjSy3h-5" value="" style="edgeStyle=none;curved=1;rounded=0;orthogonalLoop=1;jettySize=auto;html=1;fontSize=12;startSize=8;endSize=8;" parent="1" source="wc6qztgDE9MtCntjSy3h-2" target="wc6qztgDE9MtCntjSy3h-4" edge="1">
          <mxGeometry relative="1" as="geometry" />
        </mxCell>
        <mxCell id="wc6qztgDE9MtCntjSy3h-2" value="&lt;font style=&quot;font-size: 10px;&quot;&gt;Output&lt;/font&gt;&lt;div style=&quot;font-size: 10px;&quot;&gt;&lt;b&gt;&lt;font style=&quot;font-size: 10px;&quot;&gt;Program CRUD Catatan Pribad&lt;/font&gt;&lt;span style=&quot;font-size: 10px;&quot;&gt;i&amp;nbsp;&lt;/span&gt;&lt;/b&gt;&lt;/div&gt;" style="shape=parallelogram;perimeter=parallelogramPerimeter;whiteSpace=wrap;html=1;fixedSize=1;" parent="1" vertex="1">
          <mxGeometry x="182" y="-30" width="142" height="64" as="geometry" />
        </mxCell>
        <mxCell id="wc6qztgDE9MtCntjSy3h-9" value="" style="edgeStyle=none;curved=1;rounded=0;orthogonalLoop=1;jettySize=auto;html=1;fontSize=12;startSize=8;endSize=8;" parent="1" source="wc6qztgDE9MtCntjSy3h-4" target="wc6qztgDE9MtCntjSy3h-8" edge="1">
          <mxGeometry relative="1" as="geometry" />
        </mxCell>
        <mxCell id="wc6qztgDE9MtCntjSy3h-4" value="&lt;span style=&quot;font-size: 10px;&quot;&gt;&lt;b&gt;Input&lt;/b&gt;&lt;/span&gt;&lt;br&gt;&lt;div&gt;&lt;span style=&quot;font-size: 10px;&quot;&gt;Username&amp;nbsp;&lt;/span&gt;&lt;/div&gt;&lt;div&gt;&lt;span style=&quot;font-size: 10px;&quot;&gt;Password&lt;/span&gt;&lt;/div&gt;" style="shape=parallelogram;perimeter=parallelogramPerimeter;whiteSpace=wrap;html=1;fixedSize=1;" parent="1" vertex="1">
          <mxGeometry x="180" y="80" width="142" height="64" as="geometry" />
        </mxCell>
        <mxCell id="OFa0QZV5chmp_ZGWXEVX-45" value="" style="edgeStyle=orthogonalEdgeStyle;rounded=0;orthogonalLoop=1;jettySize=auto;html=1;" parent="1" source="wc6qztgDE9MtCntjSy3h-8" target="wc6qztgDE9MtCntjSy3h-4" edge="1">
          <mxGeometry relative="1" as="geometry">
            <mxPoint x="120" y="100" as="targetPoint" />
            <Array as="points">
              <mxPoint x="140" y="247" />
              <mxPoint x="140" y="100" />
            </Array>
          </mxGeometry>
        </mxCell>
        <mxCell id="OFa0QZV5chmp_ZGWXEVX-47" value="" style="edgeStyle=orthogonalEdgeStyle;rounded=0;orthogonalLoop=1;jettySize=auto;html=1;" parent="1" source="wc6qztgDE9MtCntjSy3h-8" target="wc6qztgDE9MtCntjSy3h-15" edge="1">
          <mxGeometry relative="1" as="geometry" />
        </mxCell>
        <mxCell id="wc6qztgDE9MtCntjSy3h-8" value="username and password &quot;true&quot;" style="rhombus;whiteSpace=wrap;html=1;" parent="1" vertex="1">
          <mxGeometry x="187" y="198" width="132" height="98" as="geometry" />
        </mxCell>
        <mxCell id="OFa0QZV5chmp_ZGWXEVX-49" value="" style="edgeStyle=orthogonalEdgeStyle;rounded=0;orthogonalLoop=1;jettySize=auto;html=1;" parent="1" source="wc6qztgDE9MtCntjSy3h-15" target="OFa0QZV5chmp_ZGWXEVX-48" edge="1">
          <mxGeometry relative="1" as="geometry" />
        </mxCell>
        <mxCell id="wc6qztgDE9MtCntjSy3h-15" value="&lt;b&gt;Output&amp;nbsp;&lt;/b&gt;&lt;div&gt;Catatan Ku&lt;/div&gt;&lt;div&gt;Menu :&lt;/div&gt;&lt;div&gt;[1] Lihat Daftar Catatan&lt;/div&gt;&lt;div&gt;[2] Tambah Catatan&lt;/div&gt;&lt;div&gt;[3] Edit Catatan&lt;/div&gt;&lt;div&gt;[4] Hapus Catatan&amp;nbsp;&lt;/div&gt;&lt;div&gt;[5] Keluar Program&lt;/div&gt;" style="shape=parallelogram;perimeter=parallelogramPerimeter;whiteSpace=wrap;html=1;fixedSize=1;" parent="1" vertex="1">
          <mxGeometry x="350" y="181" width="188" height="132" as="geometry" />
        </mxCell>
        <mxCell id="wc6qztgDE9MtCntjSy3h-19" value="" style="edgeStyle=none;curved=1;rounded=0;orthogonalLoop=1;jettySize=auto;html=1;fontSize=12;startSize=8;endSize=8;" parent="1" source="wc6qztgDE9MtCntjSy3h-16" target="wc6qztgDE9MtCntjSy3h-18" edge="1">
          <mxGeometry relative="1" as="geometry" />
        </mxCell>
        <mxCell id="wc6qztgDE9MtCntjSy3h-21" value="" style="edgeStyle=none;curved=1;rounded=0;orthogonalLoop=1;jettySize=auto;html=1;fontSize=12;startSize=8;endSize=8;" parent="1" source="wc6qztgDE9MtCntjSy3h-16" target="wc6qztgDE9MtCntjSy3h-20" edge="1">
          <mxGeometry relative="1" as="geometry" />
        </mxCell>
        <mxCell id="wc6qztgDE9MtCntjSy3h-16" value="Pilihan = 1" style="rhombus;whiteSpace=wrap;html=1;" parent="1" vertex="1">
          <mxGeometry x="743" y="207" width="87" height="80" as="geometry" />
        </mxCell>
        <mxCell id="wc6qztgDE9MtCntjSy3h-18" value="&lt;b&gt;Output&amp;nbsp;&lt;/b&gt;&lt;div&gt;Lihat Catatan&lt;/div&gt;" style="shape=parallelogram;perimeter=parallelogramPerimeter;whiteSpace=wrap;html=1;fixedSize=1;" parent="1" vertex="1">
          <mxGeometry x="870" y="217" width="120" height="60" as="geometry" />
        </mxCell>
        <mxCell id="OFa0QZV5chmp_ZGWXEVX-14" value="" style="edgeStyle=orthogonalEdgeStyle;rounded=0;orthogonalLoop=1;jettySize=auto;html=1;" parent="1" source="wc6qztgDE9MtCntjSy3h-20" target="OFa0QZV5chmp_ZGWXEVX-13" edge="1">
          <mxGeometry relative="1" as="geometry" />
        </mxCell>
        <mxCell id="OFa0QZV5chmp_ZGWXEVX-19" value="" style="edgeStyle=orthogonalEdgeStyle;rounded=0;orthogonalLoop=1;jettySize=auto;html=1;" parent="1" source="wc6qztgDE9MtCntjSy3h-20" target="OFa0QZV5chmp_ZGWXEVX-18" edge="1">
          <mxGeometry relative="1" as="geometry" />
        </mxCell>
        <mxCell id="wc6qztgDE9MtCntjSy3h-20" value="&amp;nbsp;Pilihan = 2" style="rhombus;whiteSpace=wrap;html=1;" parent="1" vertex="1">
          <mxGeometry x="740" y="340" width="87" height="80" as="geometry" />
        </mxCell>
        <mxCell id="OFa0QZV5chmp_ZGWXEVX-11" value="True" style="text;html=1;align=center;verticalAlign=middle;whiteSpace=wrap;rounded=0;" parent="1" vertex="1">
          <mxGeometry x="830" y="230" width="40" height="13" as="geometry" />
        </mxCell>
        <mxCell id="OFa0QZV5chmp_ZGWXEVX-12" value="False" style="text;html=1;align=center;verticalAlign=middle;whiteSpace=wrap;rounded=0;rotation=90;" parent="1" vertex="1">
          <mxGeometry x="780" y="306" width="40" height="10" as="geometry" />
        </mxCell>
        <mxCell id="OFa0QZV5chmp_ZGWXEVX-16" value="" style="edgeStyle=orthogonalEdgeStyle;rounded=0;orthogonalLoop=1;jettySize=auto;html=1;" parent="1" source="OFa0QZV5chmp_ZGWXEVX-13" target="OFa0QZV5chmp_ZGWXEVX-15" edge="1">
          <mxGeometry relative="1" as="geometry" />
        </mxCell>
        <mxCell id="OFa0QZV5chmp_ZGWXEVX-13" value="&lt;b&gt;Input&lt;/b&gt;&lt;br&gt;&lt;div&gt;Nomor Catatan&lt;/div&gt;&lt;div&gt;Tanggal Catatan&lt;/div&gt;&lt;div&gt;Isi Catatan&amp;nbsp;&lt;/div&gt;" style="shape=parallelogram;perimeter=parallelogramPerimeter;whiteSpace=wrap;html=1;fixedSize=1;" parent="1" vertex="1">
          <mxGeometry x="870" y="350" width="120" height="60" as="geometry" />
        </mxCell>
        <mxCell id="OFa0QZV5chmp_ZGWXEVX-32" value="" style="edgeStyle=orthogonalEdgeStyle;rounded=0;orthogonalLoop=1;jettySize=auto;html=1;" parent="1" source="OFa0QZV5chmp_ZGWXEVX-15" target="OFa0QZV5chmp_ZGWXEVX-31" edge="1">
          <mxGeometry relative="1" as="geometry" />
        </mxCell>
        <mxCell id="OFa0QZV5chmp_ZGWXEVX-15" value="&lt;b&gt;Output&lt;/b&gt;&lt;div&gt;Catatan Berhasil Di Tambahkan&lt;/div&gt;" style="shape=parallelogram;perimeter=parallelogramPerimeter;whiteSpace=wrap;html=1;fixedSize=1;" parent="1" vertex="1">
          <mxGeometry x="1040" y="350" width="140" height="60" as="geometry" />
        </mxCell>
        <mxCell id="OFa0QZV5chmp_ZGWXEVX-17" value="True" style="text;html=1;align=center;verticalAlign=middle;whiteSpace=wrap;rounded=0;" parent="1" vertex="1">
          <mxGeometry x="825" y="360" width="50" height="10" as="geometry" />
        </mxCell>
        <mxCell id="OFa0QZV5chmp_ZGWXEVX-21" value="" style="edgeStyle=orthogonalEdgeStyle;rounded=0;orthogonalLoop=1;jettySize=auto;html=1;" parent="1" source="OFa0QZV5chmp_ZGWXEVX-18" target="OFa0QZV5chmp_ZGWXEVX-20" edge="1">
          <mxGeometry relative="1" as="geometry" />
        </mxCell>
        <mxCell id="OFa0QZV5chmp_ZGWXEVX-26" value="" style="edgeStyle=orthogonalEdgeStyle;rounded=0;orthogonalLoop=1;jettySize=auto;html=1;" parent="1" source="OFa0QZV5chmp_ZGWXEVX-18" target="OFa0QZV5chmp_ZGWXEVX-25" edge="1">
          <mxGeometry relative="1" as="geometry" />
        </mxCell>
        <mxCell id="OFa0QZV5chmp_ZGWXEVX-18" value="Pilihan = 3" style="rhombus;whiteSpace=wrap;html=1;" parent="1" vertex="1">
          <mxGeometry x="740" y="480" width="87" height="80" as="geometry" />
        </mxCell>
        <mxCell id="OFa0QZV5chmp_ZGWXEVX-23" value="" style="edgeStyle=orthogonalEdgeStyle;rounded=0;orthogonalLoop=1;jettySize=auto;html=1;" parent="1" source="OFa0QZV5chmp_ZGWXEVX-20" target="OFa0QZV5chmp_ZGWXEVX-22" edge="1">
          <mxGeometry relative="1" as="geometry" />
        </mxCell>
        <mxCell id="OFa0QZV5chmp_ZGWXEVX-20" value="&lt;b&gt;Input&lt;/b&gt;&lt;div&gt;Nomor Catatan yang ingin di edit&lt;/div&gt;&lt;div&gt;Catatan yang baru&lt;/div&gt;&lt;div&gt;&lt;br&gt;&lt;/div&gt;" style="shape=parallelogram;perimeter=parallelogramPerimeter;whiteSpace=wrap;html=1;fixedSize=1;" parent="1" vertex="1">
          <mxGeometry x="870" y="487.5" width="209.5" height="65" as="geometry" />
        </mxCell>
        <mxCell id="OFa0QZV5chmp_ZGWXEVX-73" value="" style="edgeStyle=orthogonalEdgeStyle;rounded=0;orthogonalLoop=1;jettySize=auto;html=1;" parent="1" source="OFa0QZV5chmp_ZGWXEVX-22" target="OFa0QZV5chmp_ZGWXEVX-72" edge="1">
          <mxGeometry relative="1" as="geometry" />
        </mxCell>
        <mxCell id="OFa0QZV5chmp_ZGWXEVX-22" value="&lt;b&gt;Output&amp;nbsp;&lt;/b&gt;&lt;div&gt;Catatan berhasil di edit&amp;nbsp;&lt;/div&gt;" style="shape=parallelogram;perimeter=parallelogramPerimeter;whiteSpace=wrap;html=1;fixedSize=1;" parent="1" vertex="1">
          <mxGeometry x="1090" y="490" width="160" height="60" as="geometry" />
        </mxCell>
        <mxCell id="OFa0QZV5chmp_ZGWXEVX-24" value="False" style="text;html=1;align=center;verticalAlign=middle;whiteSpace=wrap;rounded=0;rotation=90;" parent="1" vertex="1">
          <mxGeometry x="775" y="440" width="50" height="10" as="geometry" />
        </mxCell>
        <mxCell id="OFa0QZV5chmp_ZGWXEVX-28" value="" style="edgeStyle=orthogonalEdgeStyle;rounded=0;orthogonalLoop=1;jettySize=auto;html=1;" parent="1" source="OFa0QZV5chmp_ZGWXEVX-25" target="OFa0QZV5chmp_ZGWXEVX-27" edge="1">
          <mxGeometry relative="1" as="geometry" />
        </mxCell>
        <mxCell id="OFa0QZV5chmp_ZGWXEVX-64" value="" style="edgeStyle=orthogonalEdgeStyle;rounded=0;orthogonalLoop=1;jettySize=auto;html=1;" parent="1" source="OFa0QZV5chmp_ZGWXEVX-25" target="OFa0QZV5chmp_ZGWXEVX-63" edge="1">
          <mxGeometry relative="1" as="geometry" />
        </mxCell>
        <mxCell id="OFa0QZV5chmp_ZGWXEVX-25" value="Pilihan = 4" style="rhombus;whiteSpace=wrap;html=1;" parent="1" vertex="1">
          <mxGeometry x="740" y="620" width="87" height="80" as="geometry" />
        </mxCell>
        <mxCell id="OFa0QZV5chmp_ZGWXEVX-30" value="" style="edgeStyle=orthogonalEdgeStyle;rounded=0;orthogonalLoop=1;jettySize=auto;html=1;" parent="1" source="OFa0QZV5chmp_ZGWXEVX-27" target="OFa0QZV5chmp_ZGWXEVX-29" edge="1">
          <mxGeometry relative="1" as="geometry" />
        </mxCell>
        <mxCell id="OFa0QZV5chmp_ZGWXEVX-27" value="&lt;b&gt;Input&amp;nbsp;&lt;/b&gt;&lt;div&gt;Nomor catatan yang ingin di hapus&lt;/div&gt;" style="shape=parallelogram;perimeter=parallelogramPerimeter;whiteSpace=wrap;html=1;fixedSize=1;" parent="1" vertex="1">
          <mxGeometry x="870" y="630" width="179.5" height="60" as="geometry" />
        </mxCell>
        <mxCell id="OFa0QZV5chmp_ZGWXEVX-77" value="" style="edgeStyle=orthogonalEdgeStyle;rounded=0;orthogonalLoop=1;jettySize=auto;html=1;" parent="1" source="OFa0QZV5chmp_ZGWXEVX-29" target="OFa0QZV5chmp_ZGWXEVX-76" edge="1">
          <mxGeometry relative="1" as="geometry" />
        </mxCell>
        <mxCell id="OFa0QZV5chmp_ZGWXEVX-29" value="&lt;b&gt;Output&lt;/b&gt;&lt;div&gt;Catatan ke (nomor catatan) berhasil dihapus&lt;/div&gt;" style="shape=parallelogram;perimeter=parallelogramPerimeter;whiteSpace=wrap;html=1;fixedSize=1;" parent="1" vertex="1">
          <mxGeometry x="1060" y="630" width="180" height="60" as="geometry" />
        </mxCell>
        <mxCell id="OFa0QZV5chmp_ZGWXEVX-34" value="" style="edgeStyle=orthogonalEdgeStyle;rounded=0;orthogonalLoop=1;jettySize=auto;html=1;entryX=0.5;entryY=0;entryDx=0;entryDy=0;" parent="1" source="OFa0QZV5chmp_ZGWXEVX-31" target="OFa0QZV5chmp_ZGWXEVX-48" edge="1">
          <mxGeometry relative="1" as="geometry">
            <mxPoint x="1480" y="-10" as="targetPoint" />
            <Array as="points">
              <mxPoint x="1520" y="380" />
              <mxPoint x="1520" y="160" />
              <mxPoint x="640" y="160" />
            </Array>
          </mxGeometry>
        </mxCell>
        <mxCell id="OFa0QZV5chmp_ZGWXEVX-35" value="t" style="edgeLabel;html=1;align=center;verticalAlign=middle;resizable=0;points=[];" parent="OFa0QZV5chmp_ZGWXEVX-34" vertex="1" connectable="0">
          <mxGeometry x="0.8319" y="-3" relative="1" as="geometry">
            <mxPoint x="-4" y="-1" as="offset" />
          </mxGeometry>
        </mxCell>
        <mxCell id="OFa0QZV5chmp_ZGWXEVX-31" value="&lt;b&gt;Input&amp;nbsp;&lt;/b&gt;&lt;div&gt;Klik enter untuk memilih menu lagi&lt;/div&gt;" style="shape=parallelogram;perimeter=parallelogramPerimeter;whiteSpace=wrap;html=1;fixedSize=1;" parent="1" vertex="1">
          <mxGeometry x="1220" y="350" width="160" height="60" as="geometry" />
        </mxCell>
        <mxCell id="OFa0QZV5chmp_ZGWXEVX-50" value="" style="edgeStyle=orthogonalEdgeStyle;rounded=0;orthogonalLoop=1;jettySize=auto;html=1;" parent="1" source="OFa0QZV5chmp_ZGWXEVX-48" target="wc6qztgDE9MtCntjSy3h-16" edge="1">
          <mxGeometry relative="1" as="geometry" />
        </mxCell>
        <mxCell id="OFa0QZV5chmp_ZGWXEVX-48" value="&lt;b&gt;Input&lt;/b&gt;&lt;div&gt;Masukkan pilihan&amp;nbsp;&lt;/div&gt;" style="shape=parallelogram;perimeter=parallelogramPerimeter;whiteSpace=wrap;html=1;fixedSize=1;" parent="1" vertex="1">
          <mxGeometry x="580" y="208.5" width="120" height="77" as="geometry" />
        </mxCell>
        <mxCell id="OFa0QZV5chmp_ZGWXEVX-66" value="" style="edgeStyle=orthogonalEdgeStyle;rounded=0;orthogonalLoop=1;jettySize=auto;html=1;" parent="1" source="OFa0QZV5chmp_ZGWXEVX-63" target="OFa0QZV5chmp_ZGWXEVX-65" edge="1">
          <mxGeometry relative="1" as="geometry" />
        </mxCell>
        <mxCell id="OFa0QZV5chmp_ZGWXEVX-83" value="" style="edgeStyle=orthogonalEdgeStyle;rounded=0;orthogonalLoop=1;jettySize=auto;html=1;" parent="1" source="OFa0QZV5chmp_ZGWXEVX-63" target="OFa0QZV5chmp_ZGWXEVX-82" edge="1">
          <mxGeometry relative="1" as="geometry" />
        </mxCell>
        <mxCell id="OFa0QZV5chmp_ZGWXEVX-63" value="Pilihan = 5" style="rhombus;whiteSpace=wrap;html=1;" parent="1" vertex="1">
          <mxGeometry x="740" y="780" width="87" height="80" as="geometry" />
        </mxCell>
        <mxCell id="OFa0QZV5chmp_ZGWXEVX-85" value="" style="edgeStyle=orthogonalEdgeStyle;rounded=0;orthogonalLoop=1;jettySize=auto;html=1;" parent="1" source="OFa0QZV5chmp_ZGWXEVX-65" target="OFa0QZV5chmp_ZGWXEVX-84" edge="1">
          <mxGeometry relative="1" as="geometry" />
        </mxCell>
        <mxCell id="OFa0QZV5chmp_ZGWXEVX-65" value="&lt;b&gt;Output&lt;/b&gt;&lt;div&gt;Anda Telah Keluar dari Program&lt;/div&gt;" style="shape=parallelogram;perimeter=parallelogramPerimeter;whiteSpace=wrap;html=1;fixedSize=1;" parent="1" vertex="1">
          <mxGeometry x="870" y="790" width="160" height="60" as="geometry" />
        </mxCell>
        <mxCell id="OFa0QZV5chmp_ZGWXEVX-67" value="True" style="text;html=1;align=center;verticalAlign=middle;whiteSpace=wrap;rounded=0;" parent="1" vertex="1">
          <mxGeometry x="825" y="510" width="53" as="geometry" />
        </mxCell>
        <mxCell id="OFa0QZV5chmp_ZGWXEVX-68" value="True" style="text;html=1;align=center;verticalAlign=middle;whiteSpace=wrap;rounded=0;" parent="1" vertex="1">
          <mxGeometry x="827" y="640" width="45" height="10" as="geometry" />
        </mxCell>
        <mxCell id="OFa0QZV5chmp_ZGWXEVX-69" value="True" style="text;html=1;align=center;verticalAlign=middle;whiteSpace=wrap;rounded=0;" parent="1" vertex="1">
          <mxGeometry x="829" y="800" width="45" height="10" as="geometry" />
        </mxCell>
        <mxCell id="OFa0QZV5chmp_ZGWXEVX-70" value="False" style="text;html=1;align=center;verticalAlign=middle;whiteSpace=wrap;rounded=0;rotation=90;" parent="1" vertex="1">
          <mxGeometry x="775" y="580" width="50" height="10" as="geometry" />
        </mxCell>
        <mxCell id="OFa0QZV5chmp_ZGWXEVX-71" value="False" style="text;html=1;align=center;verticalAlign=middle;whiteSpace=wrap;rounded=0;rotation=90;" parent="1" vertex="1">
          <mxGeometry x="775" y="740" width="50" height="10" as="geometry" />
        </mxCell>
        <mxCell id="OFa0QZV5chmp_ZGWXEVX-75" value="" style="edgeStyle=orthogonalEdgeStyle;rounded=0;orthogonalLoop=1;jettySize=auto;html=1;" parent="1" source="OFa0QZV5chmp_ZGWXEVX-72" edge="1">
          <mxGeometry relative="1" as="geometry">
            <mxPoint x="1520" y="280" as="targetPoint" />
          </mxGeometry>
        </mxCell>
        <mxCell id="OFa0QZV5chmp_ZGWXEVX-72" value="&lt;b&gt;Input&lt;/b&gt;&lt;br&gt;&lt;div&gt;Klik enter untuk memilih menu lagi&lt;/div&gt;" style="shape=parallelogram;perimeter=parallelogramPerimeter;whiteSpace=wrap;html=1;fixedSize=1;" parent="1" vertex="1">
          <mxGeometry x="1260" y="490" width="160" height="60" as="geometry" />
        </mxCell>
        <mxCell id="OFa0QZV5chmp_ZGWXEVX-79" value="" style="edgeStyle=orthogonalEdgeStyle;rounded=0;orthogonalLoop=1;jettySize=auto;html=1;" parent="1" source="OFa0QZV5chmp_ZGWXEVX-76" edge="1">
          <mxGeometry relative="1" as="geometry">
            <mxPoint x="1520" y="280" as="targetPoint" />
          </mxGeometry>
        </mxCell>
        <mxCell id="OFa0QZV5chmp_ZGWXEVX-76" value="&lt;b&gt;Input&lt;/b&gt;&lt;div&gt;Klik enter untuk memilih menu lagi&lt;/div&gt;" style="shape=parallelogram;perimeter=parallelogramPerimeter;whiteSpace=wrap;html=1;fixedSize=1;" parent="1" vertex="1">
          <mxGeometry x="1260" y="630" width="210" height="60" as="geometry" />
        </mxCell>
        <mxCell id="OFa0QZV5chmp_ZGWXEVX-82" value="&lt;b&gt;Break&lt;/b&gt;" style="whiteSpace=wrap;html=1;" parent="1" vertex="1">
          <mxGeometry x="723.5" y="920" width="120" height="60" as="geometry" />
        </mxCell>
        <mxCell id="OFa0QZV5chmp_ZGWXEVX-84" value="&lt;b&gt;Break&lt;/b&gt;" style="whiteSpace=wrap;html=1;" parent="1" vertex="1">
          <mxGeometry x="1079.5" y="790" width="120" height="60" as="geometry" />
        </mxCell>
        <mxCell id="OFa0QZV5chmp_ZGWXEVX-86" value="False" style="text;html=1;align=center;verticalAlign=middle;whiteSpace=wrap;rounded=0;rotation=90;" parent="1" vertex="1">
          <mxGeometry x="775" y="880" width="50" height="10" as="geometry" />
        </mxCell>
      </root>
    </mxGraphModel>
  </diagram>
</mxfile>
